<svg height="512pt" viewBox="-53 0 512 512.00032" width="512pt" xmlns="http://www.w3.org/2000/svg" xmlns:xlink="http://www.w3.org/1999/xlink"><linearGradient id="a" gradientTransform="matrix(.410196 0 0 -.410196 -52.778972 511.138772)" gradientUnits="userSpaceOnUse" x1="202.0379" x2="1213.1227" y1="81.6281" y2="1092.7361"><stop offset="0" stop-color="#41dfd0"/><stop offset="1" stop-color="#ee83ef"/></linearGradient><path d="m403.570312 35.25c3.761719-3.664062 3.835938-9.683594.171876-13.441406-3.664063-3.761719-9.683594-3.835938-13.445313-.171875l-23.257813 22.585937-74.402343-42.953125c-2.933594-1.691406-6.546875-1.691406-9.480469 0l-80.59375 46.527344c-2.933594 1.691406-4.738281 4.824219-4.738281 8.210937v89.777344l-26.417969 33.59375c-.140625.25-.269531.507813-.386719.769532h-30.085937c-5.234375 0-9.480469 4.246093-9.480469 9.480468v47.410156h-112.5c-10.472656.003907-18.95703125 8.496094-18.953125 18.96875.00390625 4.4375 1.558594 8.730469 4.398438 12.136719l32.238281 38.695313v157.753906c.03125 26.167969 21.238281 47.375 47.40625 47.40625h151.707031c26.167969-.03125 47.375-21.238281 47.40625-47.40625v-218.074219c0-5.238281-4.246094-9.484375-9.480469-9.484375h-85.335937v-47.40625c0-.3125-.148438-.578125-.179688-.882812l21.515625-27.351563 73.480469 42.457031c2.933594 1.695313 6.546875 1.695313 9.480469 0l74.003906-42.722656 23.296875 25.457032c3.535156 3.863281 9.53125 4.132812 13.398438.597656 3.863281-3.535156 4.128906-9.535156.597656-13.398438l-25.960938-28.398437v-85.332031zm-253.15625 163.859375h18.964844v37.925781h-18.964844zm0 56.890625h18.964844v56.886719h-18.964844zm-131.460937 0h112.5v56.886719h-75.851563v-9.480469c0-2.21875-.777343-4.371094-2.199218-6.078125zm169.386719 0h75.851562v56.886719h-75.851562zm0 75.851562h75.851562v132.742188c0 15.707031-12.734375 28.445312-28.441406 28.445312h-151.703125c-15.710937 0-28.445313-12.738281-28.445313-28.445312v-132.742188h75.851563v19.066407c-1.804687 1.300781-3.503906 2.738281-5.082031 4.304687-18.511719 18.515625-18.507813 48.535156.007812 67.046875 18.515625 18.507813 48.535156 18.503907 67.042969-.011719 18.511719-18.511718 18.511719-48.519531 0-67.035156-1.578125-1.566406-3.277344-3.003906-5.082031-4.304687zm0 56.890626c.023437 7.546874-2.972656 14.785156-8.324219 20.109374-11.261719 10.746094-28.976563 10.746094-40.238281 0-11.101563-10.71875-11.414063-28.40625-.699219-39.511718 1.9375-2.003906 4.160156-3.707032 6.597656-5.050782 2.933594-1.695312 4.738281-4.824218 4.738281-8.210937v-24.226563h18.964844v24.214844c0 3.390625 1.804688 6.519532 4.738282 8.210938 8.910156 4.886718 14.386718 14.304687 14.222656 24.464844zm170.667968-245.136719-71.109374 41.054687-71.113282-41.054687v-82.128907l71.113282-41.054687 71.109374 41.054687zm-104.296874-67.753907v47.40625c0 5.238282-4.242188 9.484376-9.480469 9.484376s-9.480469-4.246094-9.480469-9.484376v-47.40625c0-5.238281 4.242188-9.480468 9.480469-9.480468s9.480469 4.242187 9.480469 9.480468zm42.25-30.917968 42.203124 21.597656c4.667969 2.375 6.527344 8.085938 4.152344 12.753906-2.375 4.667969-8.085937 6.527344-12.753906 4.152344l-42.210938-21.589844c-4.664062-2.386718-6.511718-8.105468-4.125-12.773437 2.390626-4.664063 8.105469-6.511719 12.773438-4.121094zm46.316406 77.378906c2.390625 4.660156.546875 10.371094-4.113282 12.761719l-42.203124 21.597656c-4.664063 2.386719-10.382813.542969-12.769532-4.125-2.390625-4.664063-.542968-10.382813 4.121094-12.769531l42.25-21.621094c4.660156-2.347656 10.34375-.492188 12.714844 4.15625zm-249.75 237.984375v9.480469c0 5.238281-4.246094 9.480468-9.484375 9.480468-5.234375 0-9.480469-4.242187-9.480469-9.480468v-9.480469c0-5.238281 4.246094-9.480469 9.480469-9.480469 5.238281 0 9.484375 4.242188 9.484375 9.480469zm132.738281 9.480469v-9.480469c0-5.238281 4.246094-9.480469 9.484375-9.480469 5.234375 0 9.480469 4.242188 9.480469 9.480469v9.480469c0 5.238281-4.246094 9.480468-9.480469 9.480468-5.238281 0-9.484375-4.242187-9.484375-9.480468zm-38.871094 83.332031c2.339844 4.683594.441407 10.378906-4.242187 12.722656-.003906 0-.003906 0-.007813.003907l-2 .945312c-13.355469 6.640625-29.046875 6.640625-42.402343 0l-2-.945312c-4.699219-2.304688-6.644532-7.984376-4.339844-12.6875 2.304687-4.703126 7.984375-6.644532 12.6875-4.339844.042968.019531.085937.042968.128906.0625l2 .996094c8.015625 3.984374 17.433594 3.984374 25.449219 0l2-.996094c4.683593-2.34375 10.378906-.445313 12.722656 4.234375 0 .003906.003906.003906.003906.003906zm0 0" fill="url(#a)"/></svg>