<svg height="512.00003pt" viewBox="0 0 512.00003 512.00003" width="512.00003pt" xmlns="http://www.w3.org/2000/svg"><path d="m144.46875 456.789062c-15.125 13.148438-36.539062 16.246094-54.769531 7.921876-18.230469-8.324219-29.914063-26.535157-29.878907-46.578126v-264.53125h102.398438v229.375zm0 0" fill="#e3e7f2"/><path d="m426.582031 469.332031h-255.660156c-12.261719 0-23.582031-6.582031-29.652344-17.238281-6.070312-10.660156-5.957031-23.753906.296875-34.300781l103.597656-174.847657c1.550782-2.640624 2.375-5.644531 2.386719-8.707031v-200.105469h102.402344v200.105469c-.027344 3.070313.800781 6.082031 2.386719 8.707031l103.597656 174.847657c6.253906 10.546875 6.367188 23.640625.296875 34.300781-6.070313 10.65625-17.390625 17.238281-29.652344 17.238281zm0 0" fill="#a4c2f7"/><path d="m239.019531 8.535156h119.464844c4.714844 0 8.535156 3.820313 8.535156 8.53125v25.601563c0 4.710937-3.820312 8.53125-8.535156 8.53125h-119.464844c-4.714843 0-8.535156-3.820313-8.535156-8.53125v-25.601563c0-4.710937 3.820313-8.53125 8.535156-8.53125zm0 0" fill="#a4c2f7"/><path d="m400.980469 469.332031h-230.058594c-12.261719 0-23.582031-6.582031-29.652344-17.238281-6.070312-10.660156-5.957031-23.753906.296875-34.300781l103.597656-174.847657c1.550782-2.640624 2.375-5.644531 2.386719-8.707031v-183.039062h-25.597656v-17.066407h102.398437v200.105469c.015626 3.0625.839844 6.066407 2.390626 8.707031l103.59375 174.847657c6.253906 10.546875 6.371093 23.640625.300781 34.300781-6.070313 10.65625-17.390625 17.238281-29.65625 17.238281zm0 0" fill="#e3e7f2"/><path d="m341.417969 17.066406v25.601563c0 4.710937-3.820313 8.53125-8.53125 8.53125h-110.933594v-17.066407h8.53125v-17.066406c0-4.710937 3.820313-8.53125 8.535156-8.53125h93.867188c4.710937 0 8.53125 3.820313 8.53125 8.53125zm0 0" fill="#e3e7f2"/><path d="m59.792969 119.464844h102.398437c4.714844 0 8.535156 3.824218 8.535156 8.535156v34.132812c0 4.714844-3.820312 8.535157-8.535156 8.535157h-102.398437c-4.710938 0-8.535157-3.820313-8.535157-8.535157v-34.132812c0-4.710938 3.824219-8.535156 8.535157-8.535156zm0 0" fill="#e3e7f2"/><path d="m141.566406 417.792969c-7.34375 12.3125-6.183594 27.90625 2.902344 38.996093-15.125 13.148438-36.539062 16.246094-54.769531 7.921876-18.230469-8.324219-29.914063-26.535157-29.878907-46.578126v-162.132812h102.398438v126.976562zm0 0" fill="#e3e7f2"/><path d="m503.464844 486.398438c-.066406 9.398437-7.667969 17-17.066406 17.066406h-460.796876c-9.414062-.027344-17.039062-7.652344-17.066406-17.066406-.027344-4.527344 1.792969-8.871094 5.03125-12.03125 3.164063-3.242188 7.507813-5.058594 12.035156-5.035157h460.796876c9.414062.03125 17.039062 7.652344 17.066406 17.066407zm0 0" fill="#7fabfa"/><path d="m477.867188 486.398438c-.070313 9.398437-7.671876 17-17.066407 17.066406h-435.199219c-9.414062-.027344-17.039062-7.652344-17.066406-17.066406-.027344-4.527344 1.792969-8.871094 5.03125-12.03125 3.164063-3.242188 7.507813-5.058594 12.035156-5.035157h435.199219c9.414063.03125 17.039063 7.652344 17.066407 17.066407zm0 0" fill="#e3e7f2"/><path d="m411.648438 435.199219h-225.792969c-3.066407 0-5.894531-1.644531-7.414063-4.308594-1.515625-2.664063-1.488281-5.9375.074219-8.574219l58.113281-98.050781h124.246094l58.113281 98.050781c1.5625 2.636719 1.589844 5.910156.074219 8.574219-1.519531 2.664063-4.347656 4.308594-7.414062 4.308594zm0 0" fill="#a4c2f7"/><path d="m387.925781 435.199219h-202.070312c-3.066407 0-5.894531-1.644531-7.414063-4.308594-1.515625-2.664063-1.488281-5.9375.074219-8.574219l58.113281-98.050781h100.523438l58.113281 98.050781c1.5625 2.636719 1.589844 5.910156.074219 8.574219-1.519532 2.664063-4.347656 4.308594-7.414063 4.308594zm0 0" fill="#e3e7f2"/><path d="m59.792969 170.667969v247.464843c0 28.277344 22.921875 51.199219 51.199219 51.199219 4.222656-.042969 8.421874-.617187 12.503906-1.707031-22.449219-5.953125-38.078125-26.269531-38.078125-49.492188v-247.464843c-4.710938 0-8.53125-3.820313-8.53125-8.535157v-34.132812c0-4.710938 3.820312-8.535156 8.53125-8.535156h-25.597657c-4.714843 0-8.535156 3.824218-8.535156 8.535156v34.132812c0 4.703126 3.804688 8.519532 8.507813 8.535157zm0 0" fill="#fff"/><path d="m245.164062 242.945312-57.34375 96.785157v43.203125l82.941407-139.945313c1.550781-2.640625 2.375-5.644531 2.390625-8.707031v-183.082031h-25.601563v183.039062c-.011719 3.0625-.835937 6.066407-2.386719 8.707031zm0 0" fill="#fff"/><path d="m25.601562 503.464844h25.597657c-9.414063-.027344-17.039063-7.652344-17.066407-17.066406.070313-9.394532 7.671876-16.996094 17.066407-17.066407h-25.597657c-4.527343-.023437-8.871093 1.792969-12.035156 5.035157-3.238281 3.160156-5.058594 7.503906-5.03125 12.03125.027344 9.414062 7.652344 17.039062 17.066406 17.066406zm0 0" fill="#fff"/><path d="m247.550781 51.199219v-17.066407h8.535157v-17.066406c0-4.710937 3.820312-8.53125 8.53125-8.53125h-25.597657c-4.714843 0-8.535156 3.820313-8.535156 8.53125v17.066406h-8.53125v17.066407zm0 0" fill="#fff"/><path d="m51.285156 418.132812v-247.464843h17.066406v247.464843zm0 0" fill="#fff"/><g fill="#428dff"><path d="m486.398438 460.800781h-25.710938c1.070312-1.425781 2.050781-2.914062 2.9375-4.457031 7.683594-13.304688 7.546875-29.730469-.367188-42.902344l-103.613281-174.847656c-.769531-1.316406-1.179687-2.8125-1.175781-4.335938v-174.523437c9.425781 0 17.066406-7.640625 17.066406-17.066406v-25.601563c0-9.425781-7.640625-17.066406-17.066406-17.066406h-119.46875c-9.425781 0-17.066406 7.640625-17.066406 17.066406v25.601563c0 9.425781 7.640625 17.066406 17.066406 17.066406v174.523437c0 1.53125-.414062 3.03125-1.191406 4.351563l-67.054688 113.167969v-174.933594c5.25-3.03125 8.496094-8.621094 8.53125-14.683594v-34.160156c0-9.425781-7.640625-17.066406-17.066406-17.066406h-102.398438c-9.425781 0-17.066406 7.640625-17.066406 17.066406v34.132812c.015625 6.074219 3.265625 11.675782 8.53125 14.703126v78.738281c0 .152343-.085937.273437-.085937.425781s.078125.273438.085937.425781v59.308594c0 4.710937 3.820313 8.53125 8.535156 8.53125 4.710938 0 8.53125-3.820313 8.53125-8.53125v-51.199219h85.332032v116.050782l-19.472656 32.871093c-7.53125 12.570313-7.992188 28.152344-1.21875 41.148438-13.152344 8.007812-29.605469 8.285156-43.015626.71875-13.410156-7.566407-21.679687-21.792969-21.625-37.191407v-34.132812c0-4.710938-3.820312-8.535156-8.53125-8.535156-4.714843 0-8.535156 3.824218-8.535156 8.535156v34.132812c0 16.070313 6.492188 31.457032 18.003906 42.667969h-43.6875c-14.140624 0-25.601562 11.460938-25.601562 25.597657 0 14.140624 11.460938 25.601562 25.601562 25.601562h460.796876c14.140624 0 25.601562-11.460938 25.601562-25.601562 0-14.136719-11.460938-25.597657-25.601562-25.597657zm-426.597657-332.800781h102.402344v34.132812h-102.402344zm8.535157 119.464844v-68.265625h85.332031v68.265625zm170.664062-230.398438h119.46875v25.601563h-119.46875zm-90.109375 405.078125 103.601563-174.839843c2.339843-3.949219 3.574218-8.457032 3.574218-13.046876v-174.523437h85.335938v174.523437c-.003906 4.589844 1.230468 9.097657 3.574218 13.046876l103.59375 174.832031c4.695313 7.910156 4.785157 17.734375.230469 25.730469-4.550781 7.996093-13.042969 12.933593-22.246093 12.933593h-255.65625c-9.199219-.003906-17.683594-4.941406-22.234376-12.933593-4.550781-7.992188-4.464843-17.8125.226563-25.722657zm337.507813 72.789063h-460.796876c-4.714843 0-8.535156-3.820313-8.535156-8.535156 0-4.710938 3.820313-8.53125 8.535156-8.53125h460.796876c4.714843 0 8.535156 3.820312 8.535156 8.53125 0 4.714843-3.820313 8.535156-8.535156 8.535156zm0 0"/><path d="m185.832031 443.734375h225.789063c6.136718 0 11.796875-3.289063 14.835937-8.617187 3.035157-5.328126 2.980469-11.878907-.148437-17.15625l-58.121094-98.046876c-1.535156-2.589843-4.324219-4.179687-7.339844-4.179687h-124.234375c-3.015625-.003906-5.808593 1.585937-7.347656 4.179687l-58.148437 98.132813c-3.085938 5.277344-3.113282 11.796875-.078126 17.101563 3.039063 5.304687 8.679688 8.578124 14.792969 8.585937zm55.660157-110.933594h114.5l55.664062 93.867188h-225.824219zm0 0"/><path d="m281.667969 170.667969c4.714843 0 8.535156-3.820313 8.535156-8.535157v-76.800781c0-4.710937-3.820313-8.53125-8.535156-8.53125-4.710938 0-8.53125 3.820313-8.53125 8.53125v76.800781c0 4.714844 3.820312 8.535157 8.53125 8.535157zm0 0"/><path d="m281.667969 230.398438c4.714843 0 8.535156-3.820313 8.535156-8.53125v-25.601563c0-4.710937-3.820313-8.53125-8.535156-8.53125-4.710938 0-8.53125 3.820313-8.53125 8.53125v25.601563c0 4.710937 3.820312 8.53125 8.53125 8.53125zm0 0"/><path d="m56.574219 357.71875c.484375.246094 1.003906.417969 1.539062.511719.5625.09375 1.132813.152343 1.707031.167969 2.257813-.03125 4.421876-.914063 6.058594-2.472657.769532-.816406 1.378906-1.773437 1.789063-2.816406 1.289062-3.183594.585937-6.824219-1.789063-9.300781-.816406-.773438-1.773437-1.378906-2.816406-1.792969-1.027344-.4375-2.128906-.667969-3.242188-.683594-3.46875-.019531-6.601562 2.058594-7.933593 5.261719-1.328125 3.203125-.589844 6.890625 1.875 9.332031l1.277343 1.023438c.476563.324219.992188.582031 1.535157.769531zm0 0"/><path d="m136.535156 307.199219c0-14.136719-11.464844-25.597657-25.601562-25.597657-14.140625 0-25.601563 11.460938-25.601563 25.597657 0 14.140625 11.460938 25.601562 25.601563 25.601562 14.136718 0 25.601562-11.460937 25.601562-25.601562zm-25.601562 8.535156c-4.714844 0-8.535156-3.820313-8.535156-8.535156 0-4.710938 3.820312-8.53125 8.535156-8.53125 4.710937 0 8.53125 3.820312 8.53125 8.53125 0 4.714843-3.820313 8.535156-8.53125 8.535156zm0 0"/><path d="m341.332031 358.398438c-14.136719 0-25.597656 11.464843-25.597656 25.601562s11.460937 25.601562 25.597656 25.601562c14.140625 0 25.601563-11.464843 25.601563-25.601562s-11.460938-25.601562-25.601563-25.601562zm0 34.136718c-4.710937 0-8.53125-3.824218-8.53125-8.535156s3.820313-8.535156 8.53125-8.535156c4.714844 0 8.535157 3.824218 8.535157 8.535156s-3.820313 8.535156-8.535157 8.535156zm0 0"/><path d="m110.933594 42.667969c4.710937 0 8.53125-3.820313 8.53125-8.535157v-8.53125c0-4.714843-3.820313-8.535156-8.53125-8.535156-4.714844 0-8.535156 3.820313-8.535156 8.535156v8.53125c0 4.714844 3.820312 8.535157 8.535156 8.535157zm0 0"/><path d="m110.933594 59.734375c-4.714844 0-8.535156 3.820313-8.535156 8.53125v8.535156c0 4.710938 3.820312 8.53125 8.535156 8.53125 4.710937 0 8.53125-3.820312 8.53125-8.53125v-8.535156c0-4.710937-3.820313-8.53125-8.53125-8.53125zm0 0"/><path d="m85.332031 59.734375h8.535157c4.710937 0 8.53125-3.820313 8.53125-8.535156 0-4.710938-3.820313-8.53125-8.53125-8.53125h-8.535157c-4.710937 0-8.53125 3.820312-8.53125 8.53125 0 4.714843 3.820313 8.535156 8.53125 8.535156zm0 0"/><path d="m128 59.734375h8.535156c4.710938 0 8.53125-3.820313 8.53125-8.535156 0-4.710938-3.820312-8.53125-8.53125-8.53125h-8.535156c-4.710938 0-8.535156 3.820312-8.535156 8.53125 0 4.714843 3.824218 8.535156 8.535156 8.535156zm0 0"/><path d="m262.117188 352.339844c-3.421876-3.15625-8.695313-3.15625-12.117188 0-.769531.816406-1.371094 1.773437-1.78125 2.816406-.484375 1.011719-.722656 2.125-.691406 3.242188.03125 2.261718.914062 4.425781 2.472656 6.058593l1.28125 1.027344c.476562.324219.996094.582031 1.542969.765625.480469.246094.996093.417969 1.527343.511719.566407.097656 1.136719.15625 1.707032.171875.546875-.015625 1.085937-.070313 1.621094-.171875.566406-.078125 1.113281-.25 1.621093-.511719.527344-.167969 1.015625-.429688 1.453125-.765625.511719-.34375.945313-.683594 1.363282-1.027344 1.558593-1.632812 2.441406-3.796875 2.476562-6.058593-.015625-1.113282-.246094-2.214844-.683594-3.242188-.410156-1.042969-1.015625-2-1.792968-2.816406zm0 0"/><path d="m87.808594 364.457031 1.269531 1.027344c.480469.320313 1 .578125 1.546875.765625.484375.246094 1 .417969 1.535156.511719.5625.101562 1.132813.15625 1.707032.171875.539062-.015625 1.078124-.070313 1.613281-.171875.566406-.078125 1.117187-.25 1.628906-.511719.523437-.171875 1.015625-.429688 1.449219-.765625.503906-.34375.941406-.683594 1.367187-1.027344 1.558594-1.632812 2.441407-3.796875 2.472657-6.058593-.011719-1.113282-.242188-2.214844-.679688-3.242188-.414062-1.042969-1.023438-2-1.792969-2.816406-3.421875-3.15625-8.695312-3.15625-12.117187 0-.773438.816406-1.378906 1.773437-1.792969 2.816406-.476563 1.011719-.710937 2.125-.683594 3.242188.03125 2.261718.914063 4.425781 2.476563 6.058593zm0 0"/><path d="m96.339844 420.503906c-.773438.8125-1.378906 1.765625-1.789063 2.808594-.480469 1.015625-.714843 2.128906-.683593 3.25.03125 2.261719.914062 4.425781 2.472656 6.058594l1.273437 1.015625c.480469.324219 1 .582031 1.542969.769531.484375.246094 1.003906.421875 1.535156.519531.566406.097657 1.136719.152344 1.707032.171875.542968-.019531 1.082031-.074218 1.613281-.171875.570312-.085937 1.117187-.261719 1.632812-.519531.523438-.171875 1.011719-.429688 1.449219-.769531.503906-.332031.9375-.671875 1.363281-1.015625 1.558594-1.636719 2.441407-3.796875 2.476563-6.058594-.011719-1.117188-.246094-2.222656-.683594-3.25-.410156-1.042969-1.019531-1.996094-1.792969-2.808594-3.417969-3.164062-8.695312-3.164062-12.117187 0zm0 0"/><path d="m113.40625 377.839844c-.769531.808594-1.378906 1.765625-1.789062 2.804687-.480469 1.015625-.714844 2.128907-.683594 3.253907.03125 2.257812.914062 4.421874 2.472656 6.058593l1.273438 1.015625c.480468.320313 1 .578125 1.542968.765625.484375.246094 1.003906.421875 1.539063.523438.5625.09375 1.132812.152343 1.703125.167969.542968-.015626 1.082031-.074219 1.613281-.167969.570313-.089844 1.117187-.261719 1.632813-.523438.523437-.171875 1.011718-.429687 1.449218-.765625.503906-.332031.9375-.675781 1.363282-1.015625 1.558593-1.636719 2.441406-3.800781 2.476562-6.058593-.011719-1.117188-.246094-2.222657-.683594-3.253907-.410156-1.039062-1.019531-1.996093-1.792968-2.804687-3.417969-3.167969-8.695313-3.167969-12.117188 0zm0 0"/><path d="m287.660156 377.839844c-3.421875-3.167969-8.699218-3.167969-12.117187 0-.773438.808594-1.382813 1.765625-1.792969 2.804687-.480469 1.015625-.714844 2.128907-.683594 3.253907.03125 2.257812.914063 4.421874 2.476563 6.058593l1.269531 1.015625c.480469.320313 1 .578125 1.542969.765625.488281.246094 1.003906.421875 1.539062.523438.5625.09375 1.132813.152343 1.707031.167969.539063-.015626 1.078126-.074219 1.609376-.167969.570312-.089844 1.121093-.261719 1.632812-.523438.523438-.171875 1.011719-.429687 1.449219-.765625.503906-.332031.9375-.675781 1.367187-1.015625 1.554688-1.636719 2.4375-3.800781 2.472656-6.058593-.011718-1.117188-.242187-2.222657-.683593-3.253907-.410157-1.039062-1.015625-1.996093-1.789063-2.804687zm0 0"/><path d="m304.726562 352.238281c-3.421874-3.164062-8.699218-3.164062-12.117187 0-.773437.8125-1.382813 1.765625-1.792969 2.808594-.480468 1.015625-.714844 2.128906-.683594 3.25.03125 2.261719.914063 4.425781 2.476563 6.058594l1.269531 1.015625c.480469.324218 1 .582031 1.546875.769531.484375.246094 1 .417969 1.535157.519531.5625.09375 1.132812.152344 1.707031.171875.539062-.019531 1.078125-.078125 1.613281-.171875.566406-.085937 1.117188-.261718 1.628906-.519531.523438-.171875 1.011719-.433594 1.449219-.769531.503906-.332032.9375-.671875 1.367187-1.015625 1.554688-1.636719 2.441407-3.800781 2.472657-6.058594-.011719-1.117187-.242188-2.222656-.683594-3.25-.410156-1.042969-1.015625-1.996094-1.789063-2.808594zm0 0"/><path d="m253.585938 394.90625c-3.417969-3.167969-8.699219-3.167969-12.117188 0-.769531.8125-1.378906 1.765625-1.785156 2.808594-.484375 1.011718-.722656 2.125-.691406 3.25.035156 2.257812.917968 4.421875 2.476562 6.058594l1.277344 1.015624c.480468.324219 1 .582032 1.546875.765626.480469.246093.996093.421874 1.527343.523437.5625.09375 1.132813.148437 1.707032.167969.542968-.015625 1.085937-.074219 1.621094-.167969.5625-.085937 1.109374-.261719 1.621093-.523437.523438-.167969 1.015625-.429688 1.449219-.765626.472656-.3125.929688-.652343 1.367188-1.015624 1.554687-1.636719 2.441406-3.800782 2.472656-6.058594-.058594-2.253906-.9375-4.410156-2.472656-6.058594zm0 0"/><path d="m68.949219 88.566406c.1875.546875.445312 1.0625.769531 1.535156l1.023438 1.28125c1.632812 1.5625 3.796874 2.449219 6.058593 2.484376 1.113281-.015626 2.214844-.246094 3.242188-.683594 1.035156-.433594 1.984375-1.039063 2.816406-1.792969l1.023437-1.277344c.324219-.476562.582032-.992187.769532-1.539062.246094-.480469.417968-1 .511718-1.535157.097657-.5625.15625-1.132812.167969-1.707031-.03125-2.257812-.914062-4.421875-2.472656-6.058593-.832031-.75-1.78125-1.359376-2.816406-1.789063-3.179688-1.339844-6.847657-.632813-9.300781 1.789063l-1.023438 1.28125c-.324219.476562-.582031.992187-.769531 1.535156-.246094.484375-.417969 1.003906-.511719 1.535156-.09375.566406-.152344 1.136719-.171875 1.707031.015625.574219.074219 1.144531.171875 1.707031.09375.53125.265625 1.046876.511719 1.527344zm0 0"/><path d="m290.304688 283.308594c.09375.53125.265624 1.050781.511718 1.535156.1875.542969.445313 1.058594.769532 1.535156l1.023437 1.28125c1.636719 1.554688 3.796875 2.441406 6.058594 2.472656 1.113281-.011718 2.214843-.246093 3.242187-.683593 1.03125-.429688 1.984375-1.039063 2.816406-1.789063l1.023438-1.28125c.324219-.476562.582031-.992187.765625-1.535156.25-.484375.421875-1.003906.515625-1.535156.097656-.566406.152344-1.136719.167969-1.707032-.03125-2.261718-.914063-4.425781-2.472657-6.058593-.832031-.753907-1.785156-1.359375-2.816406-1.792969-3.179687-1.335938-6.847656-.628906-9.300781 1.792969l-1.023437 1.277343c-.324219.476563-.582032.992188-.769532 1.535157-.246094.484375-.417968 1.003906-.511718 1.539062-.09375.5625-.152344 1.132813-.171876 1.707031.015626.570313.070313 1.140626.171876 1.707032zm0 0"/><path d="m307.882812 250.710938c.1875.542968.445313 1.058593.769532 1.535156l1.023437 1.277344c1.636719 1.558593 3.796875 2.445312 6.058594 2.476562 1.113281-.011719 2.214844-.246094 3.242187-.683594 1.03125-.433594 1.984376-1.039062 2.816407-1.792968l1.023437-1.277344c.324219-.476563.582032-.992188.769532-1.535156.246093-.484376.417968-1.003907.511718-1.539063.097656-.5625.15625-1.132813.167969-1.707031-.03125-2.257813-.914063-4.421875-2.472656-6.058594-.832031-.75-1.785157-1.355469-2.816407-1.789062-3.179687-1.335938-6.847656-.628907-9.300781 1.789062l-1.023437 1.28125c-.324219.476562-.582032.992188-.769532 1.535156-.246093.484375-.417968 1.003906-.511718 1.539063-.09375.5625-.152344 1.132812-.171875 1.703125.015625.574218.074219 1.144531.171875 1.707031.09375.535156.265625 1.054687.511718 1.539063zm0 0"/><path d="m128.683594 11.765625c.1875.546875.445312 1.0625.765625 1.539063l1.027343 1.277343c1.632813 1.5625 3.796876 2.449219 6.058594 2.484375 1.113282-.011718 2.214844-.246094 3.242188-.683594 1.03125-.433593 1.984375-1.039062 2.816406-1.789062l1.023438-1.28125c.320312-.476562.582031-.992188.765624-1.535156.246094-.484375.421876-1.003906.511719-1.539063.101563-.5625.15625-1.132812.171875-1.703125-.03125-2.261718-.917968-4.425781-2.472656-6.058594-.832031-.753906-1.785156-1.359374-2.816406-1.792968-3.179688-1.335938-6.847656-.6289065-9.300782 1.792968l-1.027343 1.277344c-.320313.476563-.578125.992188-.765625 1.535156-.246094.484376-.421875 1.003907-.511719 1.539063-.097656.5625-.152344 1.132813-.171875 1.707031.015625.570313.070312 1.140625.171875 1.703125.09375.535157.265625 1.046875.511719 1.527344zm0 0"/></g></svg>