<svg height="512pt" viewBox="-4 0 512 512.00019" width="512pt" xmlns="http://www.w3.org/2000/svg" xmlns:xlink="http://www.w3.org/1999/xlink"><linearGradient id="a"><stop offset="0" stop-color="#e93e3a"/><stop offset=".357" stop-color="#ed683c"/><stop offset=".708" stop-color="#f3903f"/><stop offset="1" stop-color="#fdc70c"/></linearGradient><linearGradient id="b" gradientTransform="matrix(.667527 0 0 -.667527 -4.308 522.911532)" gradientUnits="userSpaceOnUse" x1="262.1275" x2="262.1275" xlink:href="#a" y1="23.2403" y2="853.7879"/><linearGradient id="c" gradientTransform="matrix(.667527 0 0 -.667527 -4.308 522.911532)" gradientUnits="userSpaceOnUse" x1="159.8858" x2="159.8858" xlink:href="#a" y1="23.2403" y2="853.7879"/><linearGradient id="d" gradientTransform="matrix(.667527 0 0 -.667527 -4.308 522.911532)" gradientUnits="userSpaceOnUse" x1="364.3692" x2="364.3692" xlink:href="#a" y1="23.2403" y2="853.7879"/><linearGradient id="e" gradientTransform="matrix(.667527 0 0 -.667527 -4.308 522.911532)" gradientUnits="userSpaceOnUse" x1="223.7869" x2="223.7869" xlink:href="#a" y1="23.2403" y2="853.7879"/><linearGradient id="f" gradientTransform="matrix(.667527 0 0 -.667527 -4.308 522.911532)" gradientUnits="userSpaceOnUse" x1="249.3473" x2="249.3473" xlink:href="#a" y1="23.2403" y2="853.7879"/><linearGradient id="g" gradientTransform="matrix(.667527 0 0 -.667527 -4.308 522.911532)" gradientUnits="userSpaceOnUse" x1="300.4681" x2="300.4681" xlink:href="#a" y1="23.2403" y2="853.7879"/><linearGradient id="h" gradientTransform="matrix(.667527 0 0 -.667527 -4.308 522.911532)" gradientUnits="userSpaceOnUse" x1="274.9077" x2="274.9077" xlink:href="#a" y1="23.2403" y2="853.7879"/><linearGradient id="i" gradientTransform="matrix(.667527 0 0 -.667527 -4.308 522.911532)" gradientUnits="userSpaceOnUse" x1="588.0229" x2="588.0229" xlink:href="#a" y1="23.2403" y2="853.7879"/><path d="m230.386719 181.5v-130.3125c9.425781 0 17.0625-7.640625 17.0625-17.0625v-17.0625c0-9.425781-7.640625-17.0625-17.0625-17.0625h-119.433594c-9.425781 0-17.0625 7.640625-17.0625 17.0625v17.0625c0 9.421875 7.636719 17.0625 17.0625 17.0625v130.3125c-88.273437 32.980469-133.097656 131.277344-100.113281 219.550781 32.980468 88.269531 131.273437 133.09375 219.546875 100.109375 88.273437-32.980468 133.09375-131.273437 100.113281-219.546875-17.296875-46.296875-53.816406-82.816406-100.113281-100.113281zm-119.433594-164.4375h119.433594v17.0625h-119.433594zm11.226563 178.566406c3.484374-1.164062 5.835937-4.421875 5.835937-8.097656v-136.34375h85.308594v136.34375c0 3.671875 2.351562 6.933594 5.835937 8.09375 44.019532 14.636719 79.042969 48.414062 95.257813 91.875-13.234375-.421875-26.382813-2.339844-39.191407-5.71875-17.367187-4.546875-35.28125-6.699219-53.234374-6.386719-17.964844-.3125-35.890626 1.839844-53.277344 6.386719-16.078125 4.234375-32.667969 6.222656-49.292969 5.914062-16.625.3125-33.210937-1.679687-49.292969-5.914062-12.527344-3.265625-25.351562-5.265625-38.277344-5.96875 17.867188-37.964844 50.511719-66.945312 90.328126-80.183594zm48.488281 299.175782c-84.808594-.003907-153.554688-68.761719-153.546875-153.570313 0-16.546875 2.675781-32.984375 7.921875-48.675781 13.882812.296875 27.679687 2.242187 41.101562 5.792968 17.386719 4.550782 35.3125 6.699219 53.277344 6.386719 17.964844.308594 35.886719-1.835937 53.269531-6.378906 16.082032-4.242187 32.671875-6.234375 49.300782-5.921875 16.613281-.308594 33.1875 1.679688 49.25 5.914062 15.863281 4.140626 32.183593 6.261719 48.578124 6.320313 20.199219 82.367187-30.199218 165.515625-112.570312 185.714844-11.972656 2.9375-24.253906 4.417969-36.582031 4.417969zm0 0" fill="url(#b)"/><path d="m102.421875 358.308594c-14.136719 0-25.59375 11.457031-25.59375 25.59375 0 14.132812 11.457031 25.59375 25.59375 25.59375 14.132813 0 25.59375-11.460938 25.59375-25.59375 0-14.136719-11.460937-25.59375-25.59375-25.59375zm0 34.125c-4.714844 0-8.53125-3.820313-8.53125-8.53125 0-4.710938 3.816406-8.53125 8.53125-8.53125 4.710937 0 8.53125 3.820312 8.53125 8.53125 0 4.710937-3.820313 8.53125-8.53125 8.53125zm0 0" fill="url(#c)"/><path d="m238.917969 366.839844c-18.847657 0-34.125 15.277344-34.125 34.125 0 18.84375 15.277343 34.125 34.125 34.125 18.847656 0 34.125-15.28125 34.125-34.125 0-18.847656-15.277344-34.125-34.125-34.125zm0 51.1875c-9.421875 0-17.0625-7.640625-17.0625-17.0625 0-9.425782 7.640625-17.0625 17.0625-17.0625s17.0625 7.636718 17.0625 17.0625c0 9.421875-7.640625 17.0625-17.0625 17.0625zm0 0" fill="url(#d)"/><path d="m136.542969 230.339844h17.0625v17.0625h-17.0625zm0 0" fill="url(#e)"/><path d="m153.605469 213.277344h17.0625v17.0625h-17.0625zm0 0" fill="url(#f)"/><path d="m187.730469 179.152344h17.0625v17.0625h-17.0625zm0 0" fill="url(#g)"/><path d="m170.667969 153.5625h17.0625v17.058594h-17.0625zm0 0" fill="url(#h)"/><path d="m477.789062 42.65625c-14.132812 0-25.59375 11.457031-25.59375 25.59375.015626 3.800781.890626 7.546875 2.558594 10.960938l-42.894531 42.894531c-6.921875-3.046875-14.8125-3.046875-21.734375 0l-8.738281-8.761719c1.667969-3.417969 2.542969-7.167969 2.558593-10.96875.097657-14.132812-11.28125-25.671875-25.414062-25.769531-14.136719-.09375-25.671875 11.285156-25.769531 25.417969-.027344 3.921874.847656 7.800781 2.558593 11.332031l-25.722656 25.703125c-3.414062-1.667969-7.160156-2.542969-10.960937-2.558594-14.136719 0-25.59375 11.457031-25.59375 25.59375 0 14.132812 11.457031 25.59375 25.59375 25.59375 14.132812 0 25.59375-11.460938 25.59375-25.59375-.015625-3.800781-.890625-7.550781-2.558594-10.964844l25.710937-25.71875c6.921876 3.40625 15.03125 3.40625 21.953126 0l8.640624 8.648438c-1.667968 3.417968-2.542968 7.167968-2.558593 10.972656-.097657 14.132812 11.28125 25.671875 25.417969 25.765625 14.132812.097656 25.667968-11.28125 25.765624-25.417969.027344-3.921875-.847656-7.796875-2.558593-11.328125l42.785156-42.765625c3.414063 1.667969 7.160156 2.542969 10.960937 2.558594 14.136719 0 25.59375-11.457031 25.59375-25.59375s-11.457031-25.59375-25.59375-25.59375zm-179.152343 127.964844c-4.710938 0-8.53125-3.816406-8.53125-8.53125 0-4.710938 3.820312-8.527344 8.53125-8.527344 4.710937 0 8.53125 3.816406 8.53125 8.527344 0 4.714844-3.820313 8.53125-8.53125 8.53125zm53.636719-62.328125c-1.582032-1.5625-2.46875-3.695313-2.449219-5.917969 0-4.710938 3.820312-8.53125 8.53125-8.53125 4.710937 0 8.53125 3.820312 8.53125 8.53125 0 2.296875-.941407 4.492188-2.613281 6.074219-3.34375 3.269531-8.707032 3.214843-11.976563-.128907-.011719-.011718-.015625-.019531-.023437-.027343zm48.738281 45.269531c-4.714844 0-8.53125-3.820312-8.53125-8.53125-.003907-2.300781.941406-4.5 2.617187-6.074219 1.550782-1.597656 3.6875-2.484375 5.914063-2.460937 2.300781-.007813 4.5.9375 6.082031 2.613281 1.582031 1.5625 2.464844 3.695313 2.449219 5.917969-.003907 4.714844-3.820313 8.535156-8.53125 8.535156zm76.777343-76.78125c-4.710937 0-8.53125-3.820312-8.53125-8.53125s3.820313-8.53125 8.53125-8.53125c4.710938 0 8.53125 3.820312 8.53125 8.53125s-3.820312 8.53125-8.53125 8.53125zm0 0" fill="url(#i)"/></svg>